<svg xmlns="http://www.w3.org/2000/svg" xmlns:svg="http://www.w3.org/2000/svg" id="svg8" width="210mm" height="297mm" version="1.1" viewBox="0 0 210 297"><metadata id="metadata5"/><g id="layer1"><path style="fill:#000;stroke-width:1" id="path839" d="m 18.844835,296.45776 c -0.579799,-0.3065 -1.514551,-1.12977 -2.077225,-1.82947 C 14.450195,291.74652 0,271.98995 0,271.70332 c 0,-0.5738 17.287832,-23.4887 18.304367,-24.2623 2.031421,-1.54594 3.223989,-1.35913 5.618786,0.88013 1.827498,1.70883 2.841693,3.15103 4.341036,6.17309 2.132746,4.29876 3.571142,9.82564 3.573314,13.73014 l 9.36e-4,1.6951 h 6.485605 c 3.567086,0 6.485615,-0.0564 6.485615,-0.12532 0,-0.069 -0.803565,-1.54073 -1.785694,-3.27069 -1.94966,-3.4342 -2.175843,-4.63014 -0.909582,-4.80935 0.561259,-0.0794 1.667031,0.86942 5.748613,4.93281 l 5.053671,5.03117 -5.008356,5.0167 c -4.065025,4.07179 -5.16166,5.01669 -5.822306,5.01669 -0.738608,0 -0.81395,-0.0986 -0.81395,-1.06553 0,-0.7799 0.471944,-1.84676 1.760512,-3.97981 l 1.760524,-2.91427 h -6.477326 -6.477326 l -2.89e-4,1.54771 c -0.0011,4.83228 -2.213527,11.91376 -5.130619,16.42311 -3.177314,4.91163 -5.211387,6.1366 -7.862584,4.73506 z m 2.663465,-4.48315 c 0.652702,-0.70059 1.576769,-2.9744 2.252257,-5.54196 0.536791,-2.04038 1.29747,-8.39361 1.29747,-10.83646 v -1.84431 h -9.286206 c -5.10742,0 -9.2862167,0.0679 -9.2862167,0.15081 0,0.083 2.832401,4.02959 6.2942167,8.77032 3.461828,4.74072 6.478585,8.91798 6.703922,9.28279 0.517906,0.83848 1.254552,0.84532 2.024557,0.0188 z m 3.454663,-25.66644 c -0.226796,-4.40224 -0.893783,-8.47706 -1.869838,-11.42351 -0.768268,-2.3192 -1.908301,-4.12721 -2.602396,-4.12721 -0.310808,0 -12.8351972,16.6807 -14.0934701,18.77049 -0.1940613,0.32229 1.4432423,0.39154 9.2580051,0.39154 h 9.49376 z"/></g></svg>