<svg xmlns="http://www.w3.org/2000/svg" xmlns:svg="http://www.w3.org/2000/svg" id="svg8" width="210mm" height="297mm" version="1.1" viewBox="0 0 210 297"><metadata id="metadata5"/><g id="layer1"><path style="fill:#000;stroke-width:.99999994" id="path930" d="m 30.336901,296.58147 c -0.509262,-0.31635 -0.787472,-0.70322 -0.883619,-1.22873 -0.07718,-0.42184 -0.109025,-4.86675 -0.07077,-9.87755 l 0.06956,-9.11055 0.563864,-0.59997 c 0.310128,-0.32999 0.702619,-0.59997 0.872203,-0.59997 0.240246,0 0.308338,-0.66773 0.308338,-3.02364 v -3.02363 h -3.953984 -3.953986 v 5.31346 c 0,5.81586 -0.0069,5.84568 -1.428621,6.20042 -0.704535,0.1758 -1.924748,-0.35902 -2.148297,-0.94158 -0.07947,-0.20708 -0.144479,-2.67056 -0.144479,-5.4744 v -5.0979 h -3.953985 -3.953986 v 3.02363 c 0,2.35591 0.06809,3.02364 0.308338,3.02364 0.169587,0 0.535911,0.24224 0.814057,0.53831 0.502904,0.53532 0.505717,0.59347 0.505717,10.45324 v 9.91493 l -0.516926,0.36207 c -0.284459,0.19925 -0.990492,0.36125 -1.569966,0.36025 L 10.147321,296.7915 5.0736634,291.40513 0,286.0185 0.08513796,275.64916 C 0.16539709,265.87341 0.19910855,265.17617 0.67398939,263.4694 3.035088,254.98335 10.085691,248.52243 18.0553,247.54179 l 1.395524,-0.17172 0.119777,-1.18927 c 0.06588,-0.65411 0.256271,-1.35375 0.423099,-1.55477 0.743542,-0.89591 2.952669,-0.62481 3.177635,0.38997 0.06022,0.27163 0.137384,0.90786 0.171481,1.41384 l 0.06199,0.91996 1.868502,0.2657 c 4.5727,0.65027 8.703194,2.84751 12.125388,6.4502 2.623188,2.76154 4.184237,5.50237 5.247824,9.21392 0.478979,1.67149 0.511012,2.32279 0.589039,11.97875 0.05696,7.04427 0.0035,10.40178 -0.172043,10.82575 -0.140018,0.33802 -2.527213,2.87968 -5.304893,5.64813 -5.567984,5.54951 -5.922072,5.78086 -7.421723,4.84929 z"/></g></svg>